
General
Complete name                            : Apsara Awards 2012 11th March HQ XviD.avi
Format                                   : AVI
Format/Info                              : Audio Video Interleave
Format profile                           : OpenDML
File size                                : 1.60 GiB
Duration                                 : 2h 10mn
Overall bit rate                         : 1 746 Kbps
Writing application                      : Lavf52.93.0

Video
ID                                       : 0
Format                                   : MPEG-4 Visual
Format profile                           : Simple@L1
Format settings, BVOP                    : No
Format settings, QPel                    : No
Format settings, GMC                     : No warppoints
Format settings, Matrix                  : Default (H.263)
Codec ID                                 : FMP4
Duration                                 : 2h 10mn
Bit rate                                 : 1 603 Kbps
Width                                    : 512 pixels
Height                                   : 384 pixels
Display aspect ratio                     : 4:3
Frame rate                               : 29.970 fps
Color space                              : YUV
Chroma subsampling                       : 4:2:0
Bit depth                                : 8 bits
Scan type                                : Progressive
Compression mode                         : Lossy
Bits/(Pixel*Frame)                       : 0.272
Stream size                              : 1.47 GiB (92%)
Writing library                          : Lavc52.108.0

Audio
ID                                       : 1
Format                                   : MPEG Audio
Format version                           : Version 1
Format profile                           : Layer 2
Codec ID                                 : 50
Duration                                 : 2h 10mn
Bit rate mode                            : Constant
Bit rate                                 : 128 Kbps
Channel(s)                               : 2 channels
Sampling rate                            : 48.0 KHz
Compression mode                         : Lossy
Stream size                              : 120 MiB (7%)
Alignment                                : Aligned on interleaves
Interleave, duration                     : 24 ms (0.72 video frame)
Interleave, preload duration             : 48 ms
Title                                    : Apsara Awards 11th March T80 2_0ch 384Kbps DELAY 0ms

 
http://i.minus.com/jbt2Ivv5ygb6PK.jpg